<svg xmlns="http://www.w3.org/2000/svg" viewBox="0 0 48 48" fill="none">
  <path d="M33 8c0 5.523 4.477 10 10 10v8c-4.03 0-7.77-1.2-10.87-3.25V34c0 8.284-6.716 15-15 15S2 42.284 2 34s6.716-15 15-15c.688 0 1.364.046 2.027.135V27.4A7 7 0 0 0 17 27c-3.866 0-7 3.134-7 7s3.134 7 7 7 7-3.134 7-7V8h9z" fill="url(#lg)"/>
  <defs>
    <linearGradient id="lg" x1="2" y1="8" x2="43" y2="48" gradientUnits="userSpaceOnUse">
      <stop stopColor="#25f4ee"/>
      <stop offset="0.5" stopColor="#fe2c55"/>
      <stop offset="1" stopColor="#fe2c55"/>
    </linearGradient>
  </defs>
</svg>
